<svg xmlns="http://www.w3.org/2000/svg" xmlns:xlink="http://www.w3.org/1999/xlink" width="334" height="115.834" viewBox="0 0 334 115.834">
  <defs>
    <clipPath id="clip-path">
      <rect id="Rectangle_7" data-name="Rectangle 7" width="334" height="115.834" fill="none"/>
    </clipPath>
  </defs>
  <g id="Group_5" data-name="Group 5" clip-path="url(#clip-path)">
    <path id="Path_83" data-name="Path 83" d="M128.485,0A37.618,37.618,0,1,1,90.867,37.618,37.618,37.618,0,0,1,128.485,0" transform="translate(-50.068)" fill="#00d2d2"/>
    <path id="Path_84" data-name="Path 84" d="M482.981,245.9v-7.7H479.8v-1.724h8.3V238.2h-3.165v7.7Zm12.817,0v-9.429h7.246v1.7h-5.293v2.156h3.488v1.643h-3.488V244.2H503.1v1.7Zm15.474,0v-9.429h1.953v7.7h5.159V245.9Zm14.934,0v-9.429h7.247v1.7h-5.294v2.156h3.489v1.643h-3.489V244.2h5.348v1.7Zm19.756.135a5.206,5.206,0,0,1-1.967-.37,4.9,4.9,0,0,1-1.6-1.03,4.776,4.776,0,0,1-1.064-1.542,4.8,4.8,0,0,1,1.07-5.368,5.01,5.01,0,0,1,1.6-1.03,5.144,5.144,0,0,1,1.96-.37,5.3,5.3,0,0,1,1.509.215,5.514,5.514,0,0,1,1.354.607,4.26,4.26,0,0,1,1.071.943l-1.32,1.307a3.449,3.449,0,0,0-1.179-.956,3.241,3.241,0,0,0-1.435-.323,2.984,2.984,0,0,0-1.185.236,2.924,2.924,0,0,0-1.589,1.616,3.178,3.178,0,0,0-.229,1.219,3.141,3.141,0,0,0,.229,1.206,2.857,2.857,0,0,0,.647.97,2.99,2.99,0,0,0,.976.64,3.312,3.312,0,0,0,2.607-.081,3.491,3.491,0,0,0,1.144-.889l1.28,1.267a4.43,4.43,0,0,1-1.064.929,5.3,5.3,0,0,1-2.815.808m16.079.013a5.094,5.094,0,0,1-1.953-.37,4.885,4.885,0,0,1-2.647-2.586,4.924,4.924,0,0,1,0-3.812,4.881,4.881,0,0,1,2.647-2.586,5.352,5.352,0,0,1,3.913,0,4.863,4.863,0,0,1,1.589,1.037,4.845,4.845,0,0,1,0,6.91A4.864,4.864,0,0,1,564,245.678a5.144,5.144,0,0,1-1.96.37m0-1.792a2.918,2.918,0,0,0,1.185-.236A2.94,2.94,0,0,0,564.8,242.4a3.341,3.341,0,0,0,0-2.431,2.958,2.958,0,0,0-1.576-1.616,2.925,2.925,0,0,0-1.185-.236,2.891,2.891,0,0,0-1.172.236,2.959,2.959,0,0,0-1.576,1.616,3.151,3.151,0,0,0-.229,1.206,3.239,3.239,0,0,0,.229,1.226,2.94,2.94,0,0,0,1.576,1.623,2.884,2.884,0,0,0,1.172.236m13.083,1.643v-9.429h2.505l2.586,5.092,2.586-5.092h2.505V245.9h-1.845v-6.937l-3.273,6.264-3.26-6.29V245.9Z" transform="translate(-264.371 -130.214)"/>
    <path id="Path_85" data-name="Path 85" d="M0,153.089V110.3H21.457a15.556,15.556,0,0,1,7.428,1.712,12.838,12.838,0,0,1,5.043,4.738,13.235,13.235,0,0,1,1.834,7,12.644,12.644,0,0,1-6.908,11.493,15.6,15.6,0,0,1-7.4,1.712H8.864v16.138Zm8.864-23.474H20.479a6.58,6.58,0,0,0,4.615-1.589,5.435,5.435,0,0,0,1.743-4.218,5.508,5.508,0,0,0-1.743-4.279,6.584,6.584,0,0,0-4.615-1.589H8.864Zm49.461,23.474V110.3h8.864v34.967H90.6v7.825Zm52.951,0L128.882,110.3h10.209l17.422,42.792h-9.6l-4.34-11.248H124.909l-4.4,11.248ZM127.66,134.75h12.226l-6.113-15.772ZM177.9,153.089V110.3h8.436l21.274,27.631V110.3h8.314v42.792H208.1L186.278,124.48v28.609Zm64.114,0V110.3h32.888V118H250.881v9.781h15.833v7.458H250.881v10.148H275.15v7.7Zm68.754,0V118.122H296.344V110.3H334v7.825H319.635v34.967Z" transform="translate(0 -60.774)"/>
  </g>
</svg>
